<svg xmlns="http://www.w3.org/2000/svg" xmlns:xlink="http://www.w3.org/1999/xlink" width="84" height="84" viewBox="0 0 84 84">
  <defs>
    <clipPath id="clip-path">
      <rect id="Rectangle_465658" data-name="Rectangle 465658" width="61.403" height="61.152" fill="#12263f"/>
    </clipPath>
  </defs>
  <g id="img25" transform="translate(-706 -1685.277)">
    <g id="Group_1177731" data-name="Group 1177731">
      <g id="Group_1119665" data-name="Group 1119665" transform="translate(530.111 -3835.723)">
        <path id="Path_991847" data-name="Path 991847" d="M5,0H79a5,5,0,0,1,5,5V79a5,5,0,0,1-5,5H5a5,5,0,0,1-5-5V5A5,5,0,0,1,5,0Z" transform="translate(175.889 5521)" fill="#aae5ff"/>
      </g>
      <g id="Group_1212456" data-name="Group 1212456" transform="translate(717.298 1696.701)">
        <g id="Group_1212455" data-name="Group 1212455" clip-path="url(#clip-path)">
          <path id="Path_1284806" data-name="Path 1284806" d="M36.57,64.158,36.559,59.7a3.6,3.6,0,0,1,3.363-3.677l7.5-.047a4.39,4.39,0,0,1,3.675,1.8,5.558,5.558,0,0,0,1.487.078,3.094,3.094,0,0,1,3.283,3.175L55.842,64.3a3.489,3.489,0,0,1-.607,1.657,2.9,2.9,0,0,1,2.1,3.207,2.834,2.834,0,0,1-3.439,2.234,5.254,5.254,0,0,1-4.325,4.851,3.1,3.1,0,0,0,0,1.563l6.581.044a5.243,5.243,0,0,1,5.246,5.063l.009,9.976a2.26,2.26,0,0,1-2.285,2.18l-25.7.011A2.322,2.322,0,0,1,31,92.859l-.036-9.552a6.785,6.785,0,0,1,1.268-3.659l-30.39.018-.02,5.8,25.6.029c.646,0,1,.289,1.051.8a.945.945,0,0,1-1.046,1.038L2.338,87.324A2.351,2.351,0,0,1,0,84.86l0-4.628a2.373,2.373,0,0,1,2.537-2.421l.025-10.62a5.3,5.3,0,0,1,6.368-5.142,8.933,8.933,0,0,1-2.372-5.991l.017-7.108A7.034,7.034,0,0,1,13.048,42a.924.924,0,0,1,1.124.753.879.879,0,0,1-.772,1,5.212,5.212,0,0,0-4.971,5L8.4,56.065a6.348,6.348,0,0,0,3.548,5.88c.594.269,1.432-.011,2.011.056a3.31,3.31,0,0,0,0-1.47,5.136,5.136,0,0,1-4.145-5.04L9.828,52.4a3.855,3.855,0,0,1,2.415-3.491l5.032-2.027L22.026,48.8a3.949,3.949,0,0,1,2.615,3.6l.019,2.889a5.182,5.182,0,0,1-4.187,5.257,4.142,4.142,0,0,0,.012,1.409c3.083.834,5.6-2.677,5.609-5.691l.01-7.135a5.281,5.281,0,0,0-4.793-5.313L17.662,43.8a1.105,1.105,0,0,1-1.014-.635c-.151-.286-.021-1.1.476-1.1l4.583,0a6.975,6.975,0,0,1,6.184,6.865l.018,6.932a8.991,8.991,0,0,1-2.335,6.172c3.018-.356,5.453,1.16,6.185,3.9,1.576.247,2.883-.331,3.944.94a3.72,3.72,0,0,1,1.416-.887,5.135,5.135,0,0,1-.55-1.827M18.659,62l.033-2.463c.006-.446.506-.7.941-.716a3.148,3.148,0,0,0,3.191-2.974l.032-3.425A2.44,2.44,0,0,0,21.2,50.406l-3.95-1.675L13.069,50.5a2.247,2.247,0,0,0-1.433,2.1l.03,3.286A3.218,3.218,0,0,0,14.9,58.83a.852.852,0,0,1,.925.861v2.315ZM53.135,65.52a2.061,2.061,0,0,0,.928-1.643l0-2.791c0-1.983-2.066-1.212-4.008-1.547a2.771,2.771,0,0,0-2.443-1.757l-7.47.018a1.829,1.829,0,0,0-1.784,1.887l.023,4.438a1.977,1.977,0,0,0,.929,1.4c1.25.858,2.305,2.347,3.768,2.87,1.7.594,3.7-.006,5.479.228a1.784,1.784,0,0,0,1.273-.371ZM9.973,77.836l6.363,0,.01-4.143-5.211-4.566a3.416,3.416,0,0,1-1.342-2.713L9.8,63.779l-2.1.011a3.365,3.365,0,0,0-3.332,3.395L4.354,77.809,8.1,77.8l.018-5.233a.849.849,0,0,1,1.005-.837c.534.049.774.47.782,1.069Zm6.205-6.8-1.93-7.255-2.612.041L11.7,67.16Zm2.17-7.217-2.22-.045,1.1,3.7Zm4.519,2.192-.017-2.234-2.645.012-1.93,7.31,2.576-2.171a2.435,2.435,0,0,1,2.018-2.917m6.98-.1a3.508,3.508,0,0,0-3.158-2.141l-2.018.047.05,2.191ZM34.432,77.8,34.4,67.849l-11.739-.03-.057,10.013Zm4.042-10.065c-.876-.074-1.242.058-1.474.45a1.009,1.009,0,0,0,.119,1.151,1.61,1.61,0,0,0,1.386.329,7.568,7.568,0,0,0-.031-1.93m15.476,1.892a1.354,1.354,0,0,0,1.413-.359,1.016,1.016,0,0,0-.065-1.244c-.207-.25-1.032-.494-1.277-.156-.307.425-.12,1.28-.071,1.758m-6.207,5.7a.738.738,0,0,1,.725-.747,3.507,3.507,0,0,0,3.545-2.97,9.473,9.473,0,0,0-.052-2.764c-.953.771-1.712,1.565-2.827,1.562l-5.9-.016c-1.094,0-1.905-.822-2.786-1.587a6.763,6.763,0,0,0-.107,2.034A3.535,3.535,0,0,0,43.9,74.574a.861.861,0,0,1,.8.862l.034,2.357,3-.006Zm-5.032.962a5.448,5.448,0,0,1-4.164-4.871,3.519,3.519,0,0,1-2.273-.41l-.01,6.832,6.546-.029c.169-.387.262-1.363-.1-1.522M18.156,77.834l2.655-.061-.05-6.4L18.148,73.66ZM53.883,93.267l0-4.4a.838.838,0,0,1,.905-.914.891.891,0,0,1,.878.929l.008,4.4,3.923-.12.057-9.646a3.77,3.77,0,0,0-4-3.894l-19.372.043a3.339,3.339,0,0,0-3.416,3.075l-.04,10.478,3.9.019,0-4.327a.918.918,0,0,1,.977-.956.947.947,0,0,1,.849.933l.022,4.393Z" transform="translate(0 -33.931)" fill="#12263f"/>
          <path id="Path_1284807" data-name="Path 1284807" d="M174.146,18.214a1.516,1.516,0,0,1-1.76-.4,1.551,1.551,0,0,1-.206-1.646l1.059-2.316a9.225,9.225,0,1,1,3.325,3.287Zm.105-2.036a10.839,10.839,0,0,1,2.543-1.021,7.368,7.368,0,1,0-1.516-1.473Z" transform="translate(-138.972 0)" fill="#12263f"/>
          <path id="Path_1284808" data-name="Path 1284808" d="M137.258,191.317c-.26.085.191,1.356-.433,1.857a.948.948,0,0,1-1,.073c-.757-.4-.281-1.561-.453-1.849-.154-.257-1.392.2-1.864-.428a.977.977,0,0,1-.071-.979c.4-.771,1.45-.3,1.847-.464.308-.13-.193-1.326.434-1.849a.933.933,0,0,1,.98-.1c.722.364.354,1.311.482,1.858.076.325,1.365-.2,1.846.414a.972.972,0,0,1,.079,1.009c-.4.74-1.458.332-1.849.46" transform="translate(-107.746 -151.496)" fill="#12263f"/>
          <path id="Path_1284809" data-name="Path 1284809" d="M83.43,109.565c-1.3.207-2.368.058-2.473-.844a.821.821,0,0,1,.8-.938c1.476.112,2.454-.3,2.513.763a.894.894,0,0,1-.838,1.02" transform="translate(-65.414 -87.092)" fill="#12263f"/>
          <path id="Path_1284810" data-name="Path 1284810" d="M86.839,89.821c-.023.533-.016.963-.389,1.235a.935.935,0,0,1-.96.029,1.269,1.269,0,0,1-.481-1.169c-.017-.611.2-1.134.765-1.247.6-.119,1.1.316,1.065,1.153" transform="translate(-68.69 -71.633)" fill="#12263f"/>
          <path id="Path_1284811" data-name="Path 1284811" d="M197.669,43.576a.842.842,0,0,1,1.152.566.878.878,0,0,1-.575,1.127.944.944,0,0,1-1.067-.47.891.891,0,0,1,.49-1.222" transform="translate(-159.261 -35.159)" fill="#12263f"/>
          <path id="Path_1284812" data-name="Path 1284812" d="M215.615,43.5a.872.872,0,0,1,1.088.612.956.956,0,0,1-.591,1.114.9.9,0,1,1-.5-1.727" transform="translate(-173.696 -35.123)" fill="#12263f"/>
          <path id="Path_1284813" data-name="Path 1284813" d="M233.4,43.545a.882.882,0,0,1,1.139.621.91.91,0,0,1-.6,1.073.844.844,0,0,1-1.054-.441.862.862,0,0,1,.519-1.252" transform="translate(-188.098 -35.149)" fill="#12263f"/>
        </g>
      </g>
    </g>
  </g>
</svg>
