<svg xmlns="http://www.w3.org/2000/svg" xmlns:xlink="http://www.w3.org/1999/xlink" width="80" height="80" viewBox="0 0 80 80">
  <defs>
    <clipPath id="clip-path">
      <rect id="Rectangle_465711" data-name="Rectangle 465711" width="50.55" height="54.124" fill="#fff"/>
    </clipPath>
  </defs>
  <g id="img29" transform="translate(-175.889 -5521)">
    <rect id="Rectangle_402006" data-name="Rectangle 402006" width="80" height="80" rx="5" transform="translate(175.889 5521)" fill="#854601"/>
    <g id="Group_1212478" data-name="Group 1212478" transform="translate(190.614 5533.938)">
      <g id="Group_1212478-2" data-name="Group 1212478" clip-path="url(#clip-path)">
        <path id="Path_1284957" data-name="Path 1284957" d="M151.851,266.588a3.788,3.788,0,0,1,2.872,3.3l-.006,18.618a3.612,3.612,0,0,1-3.3,3.307l-31.388,0c-1.242.051-3.194-1.672-3.194-2.867V277.411h1.732V288.4a2.05,2.05,0,0,0,1.131,1.466c10.548.241,21.15.032,31.718.105a1.966,1.966,0,0,0,1.458-1.355V275.571H143.9v-1.84h8.983v-4.059c0-.39-1.043-1.353-1.461-1.353H143.9v-1.732Z" transform="translate(-104.173 -237.686)" fill="#fff"/>
        <path id="Path_1284958" data-name="Path 1284958" d="M157.8,374.619l15.046.059c.468.229.533.682.573,1.159a49.322,49.322,0,0,1,0,6.5,1.383,1.383,0,0,1-.547,1.184l-15.34-.023a1.134,1.134,0,0,1-.461-.838c-.262-2.2.2-4.9,0-7.148a1.033,1.033,0,0,1,.729-.895m10.637,1.817h-6.385l3.193,1.616Zm3.139.541c-2.186.912-4.172,2.349-6.438,3.038l-6.225-3.038v4.87h12.662Z" transform="translate(-139.965 -334.005)" fill="#fff"/>
        <rect id="Rectangle_465702" data-name="Rectangle 465702" width="9.962" height="1.84" transform="translate(36.038 44.163)" fill="#fff"/>
        <rect id="Rectangle_465703" data-name="Rectangle 465703" width="9.957" height="1.732" transform="translate(36.044 47.843)" fill="#fff"/>
        <rect id="Rectangle_465704" data-name="Rectangle 465704" width="6.277" height="1.84" transform="translate(39.723 40.591)" fill="#fff"/>
        <path id="Path_1284959" data-name="Path 1284959" d="M418.158,299.533v1.678l-.162.162h-1.677v-1.84Z" transform="translate(-371.183 -267.059)" fill="#fff"/>
        <path id="Path_1284960" data-name="Path 1284960" d="M334.119,374.407v1.84h-1.677l-.145-.179c.029-.518-.18-1.249.145-1.661Z" transform="translate(-296.235 -333.816)" fill="#fff"/>
        <rect id="Rectangle_465705" data-name="Rectangle 465705" width="1.732" height="1.84" transform="translate(41.563 32.474)" fill="#fff"/>
        <path id="Path_1284961" data-name="Path 1284961" d="M37.884,11.693H36.206l-.162-.162V8.987H1.845V34.8c0,.422,1.139,1.4,1.673,1.249l31.339-.055A2.409,2.409,0,0,0,36.044,34.8V26.2h1.84v8.713c0,1.3-1.966,3.054-3.3,2.975L3.41,37.889A3.6,3.6,0,0,1,0,34.481V3.3A3.572,3.572,0,0,1,3.193,0L34.8.005c1.3.028,3.086,1.7,3.086,2.975Zm-1.84-4.546V2.98c0-.487-1.334-1.385-1.89-1.249-10.376.1-20.792-.18-31.144.141-.406.077-1.165.841-1.165,1.216V7.147Z" fill="#fff"/>
        <path id="Path_1284962" data-name="Path 1284962" d="M233.681,112.5v6.981a2.871,2.871,0,0,1-2.072,2.582,2.761,2.761,0,0,1-3.451-2.686c-.181-2.3.155-4.813-.011-7.132a13.78,13.78,0,0,1-1.768-.937,4.524,4.524,0,0,1,2.483-8.119c4.1.325,8.019-.9,12-1.64a3.358,3.358,0,0,1,1.477-1.661,2.672,2.672,0,0,1,3.9,2.272c.286,3.654-.223,7.676,0,11.369a2.7,2.7,0,0,1-4.918,1.129c-.209-.262-.218-.705-.6-.808Zm9.492-11.017a.959.959,0,0,0-.512.786c.3,3.451-.391,7.564,0,10.936.146,1.256,1.833.972,1.842-.219-.222-3.354.3-7.086,0-10.395-.071-.8-.422-1.381-1.335-1.109m-2.349,1.925-7.149,1.47.006,5.782,7.143,1.3Zm-8.983,1.623h-3.3a6.835,6.835,0,0,0-1.021.494,2.747,2.747,0,0,0,.353,4.612,8.043,8.043,0,0,0,.885.305h3.084Zm0,7.252H230v4.437h1.84Zm0,6.278H230c-.395,2.441,2.21,2.394,1.84,0" transform="translate(-200.235 -88.796)" fill="#fff"/>
        <path id="Path_1284963" data-name="Path 1284963" d="M57.836,106.93a1.473,1.473,0,0,1,.253.776c.359,3.955-.284,8.445,0,12.457-.015.723-.475.966-1.137,1.027-4.7.438-10.066-.34-14.835,0-.527,0-1.16-.323-1.139-.917.292-4.081-.366-8.653,0-12.675.054-.588.286-.91.92-.92,4.882.342,10.349-.437,15.162,0a1.474,1.474,0,0,1,.776.253m-1.593,1.593H42.715v10.823H56.243Z" transform="translate(-36.433 -94.99)" fill="#fff"/>
        <rect id="Rectangle_465706" data-name="Rectangle 465706" width="17.1" height="1.732" transform="translate(4.55 31.608)" fill="#fff"/>
        <rect id="Rectangle_465707" data-name="Rectangle 465707" width="13.528" height="1.84" transform="translate(8.122 27.928)" fill="#fff"/>
        <rect id="Rectangle_465708" data-name="Rectangle 465708" width="1.732" height="1.84" transform="translate(4.55 27.928)" fill="#fff"/>
        <rect id="Rectangle_465709" data-name="Rectangle 465709" width="1.84" height="1.84" transform="translate(3.576 3.575)" fill="#fff"/>
        <path id="Path_1284964" data-name="Path 1284964" d="M101.709,32.98v1.678l-.162.162H99.869V32.98Z" transform="translate(-89.042 -29.405)" fill="#fff"/>
        <rect id="Rectangle_465710" data-name="Rectangle 465710" width="1.732" height="1.84" transform="translate(7.256 3.575)" fill="#fff"/>
        <path id="Path_1284965" data-name="Path 1284965" d="M92.167,141.085a1.614,1.614,0,0,1,.617.2,40.376,40.376,0,0,1,5.192,2.6.9.9,0,0,1,.04,1.627c-1.561,1.052-3.839,1.758-5.484,2.742a.857.857,0,0,1-1.2-.759c-.2-1.74.161-3.853,0-5.636a.984.984,0,0,1,.834-.775m.9,2.458v2.381l2.382-1.137c.026-.177-.136-.216-.251-.291a10.81,10.81,0,0,0-2.132-.953" transform="translate(-81.377 -125.789)" fill="#fff"/>
      </g>
    </g>
  </g>
</svg>
